<svg xmlns="http://www.w3.org/2000/svg" version="1.1" xmlns:xlink="http://www.w3.org/1999/xlink" xmlns:svgjs="http://svgjs.dev/svgjs" width="1500" height="1039" viewBox="0 0 1500 1039"><g transform="matrix(1,0,0,1,-1.4282615600629924,-1.6758064516129707)"><svg viewBox="0 0 358 248" data-background-color="#ffffff" preserveAspectRatio="xMidYMid meet" height="1039" width="1500" xmlns="http://www.w3.org/2000/svg" xmlns:xlink="http://www.w3.org/1999/xlink"><g id="tight-bounds" transform="matrix(1,0,0,1,0.34087842566836457,0.4000000000000057)"><svg viewBox="0 0 357.31824314866327 247.2" height="247.2" width="357.31824314866327"><g><svg viewBox="0 0 395.52 273.6287493704077" height="247.2" width="357.31824314866327"><g transform="matrix(1,0,0,1,0,202.9632247119444)"><svg viewBox="0 0 395.52 70.66552465846333" height="70.66552465846333" width="395.52"><g id="textblocktransform"><svg viewBox="0 0 395.52 70.66552465846333" height="70.66552465846333" width="395.52" id="textblock"><g><svg viewBox="0 0 395.52 70.66552465846333" height="70.66552465846333" width="395.52"><g transform="matrix(1,0,0,1,0,0)"><svg width="395.52" viewBox="4 -35.01 251.96 45.019999999999996" height="70.66552465846333" data-palette-color="#342691"><path d="M28.71 0L25.56 0 25.56-24 25.34-22.51 17.21 0 15.55 0 7.35-22.51 7.15-24 7.15 0 4 0 4-35.01 5.64-35.01 16.26-6.3 16.36-5 16.46-6.3 27.05-35.01 28.71-35.01 28.71 0ZM52.39-25L39.74 10.01 36.84 10.01 41.28-2.15 33.18-25 36.18-25 42.7-6.05 42.8-4.76 42.89-6.05 49.39-25 52.39-25ZM73.24-32.01L64.89-32.01 64.89 0 61.74 0 61.74-32.01 53.39-32.01 53.39-35.01 73.24-35.01 73.24-32.01ZM86.1-22.14L83.1-22.14Q82.19-22.14 81.4-21.8 80.61-21.46 80.02-20.87 79.44-20.29 79.09-19.49 78.75-18.7 78.75-17.8L78.75-17.8 78.75 0 75.75 0 75.75-25 76.75-25 78.39-22.46Q79.41-23.85 80.96-24.67 82.51-25.49 84.34-25.49L84.34-25.49 86.1-25.49 86.1-22.14ZM106.8 0L105.8 0 104.14-2.49Q103.12-1.15 101.58-0.33 100.04 0.49 98.21 0.49L98.21 0.49 97.45 0.49Q95.94 0.49 94.59-0.09 93.25-0.66 92.25-1.66 91.25-2.66 90.68-4 90.1-5.35 90.1-6.86L90.1-6.86 90.1-7.1Q90.1-8.62 90.68-9.96 91.25-11.3 92.25-12.3 93.25-13.31 94.59-13.88 95.94-14.45 97.45-14.45L97.45-14.45 103.8-14.45 103.8-18.31Q103.8-19.21 103.46-20.01 103.12-20.8 102.53-21.39 101.94-21.97 101.15-22.31 100.36-22.66 99.45-22.66L99.45-22.66 97.7-22.66Q96.79-22.66 96-22.31 95.2-21.97 94.62-21.39 94.03-20.8 93.69-20.01 93.35-19.21 93.35-18.31L93.35-18.31 93.35-17.41 90.35-17.9 90.35-18.14Q90.35-19.65 90.92-21 91.49-22.34 92.49-23.34 93.5-24.34 94.84-24.91 96.18-25.49 97.7-25.49L97.7-25.49 99.45-25.49Q100.97-25.49 102.31-24.91 103.65-24.34 104.65-23.34 105.65-22.34 106.23-21 106.8-19.65 106.8-18.14L106.8-18.14 106.8 0ZM103.8-6.69L103.8-12.11 97.45-12.11Q96.55-12.11 95.75-11.77 94.96-11.43 94.37-10.83 93.79-10.23 93.45-9.44 93.11-8.64 93.11-7.74L93.11-7.74 93.11-6.69Q93.11-5.79 93.45-4.99 93.79-4.2 94.37-3.61 94.96-3.03 95.75-2.69 96.55-2.34 97.45-2.34L97.45-2.34 99.45-2.34Q100.36-2.34 101.15-2.69 101.94-3.03 102.53-3.61 103.12-4.2 103.46-4.99 103.8-5.79 103.8-6.69L103.8-6.69ZM129.5 0L128.5 0 126.84-2.54Q125.82-1.15 124.28-0.33 122.74 0.49 120.91 0.49L120.91 0.49 120.15 0.49Q118.64 0.49 117.3-0.09 115.95-0.66 114.95-1.66 113.95-2.66 113.38-4 112.8-5.35 112.8-6.86L112.8-6.86 112.8-18.14Q112.8-19.65 113.38-21 113.95-22.34 114.95-23.34 115.95-24.34 117.3-24.91 118.64-25.49 120.15-25.49L120.15-25.49 120.91-25.49Q122.59-25.49 124.04-24.8 125.48-24.12 126.5-22.9L126.5-22.9 126.5-35.01 129.5-35.01 129.5 0ZM126.5-6.69L126.5-18.31Q126.5-19.21 126.16-20.01 125.82-20.8 125.23-21.39 124.65-21.97 123.85-22.31 123.06-22.66 122.16-22.66L122.16-22.66 120.15-22.66Q119.25-22.66 118.46-22.31 117.66-21.97 117.08-21.39 116.49-20.8 116.15-20.01 115.81-19.21 115.81-18.31L115.81-18.31 115.81-6.69Q115.81-5.79 116.15-4.99 116.49-4.2 117.08-3.61 117.66-3.03 118.46-2.69 119.25-2.34 120.15-2.34L120.15-2.34 122.16-2.34Q123.06-2.34 123.85-2.69 124.65-3.03 125.23-3.61 125.82-4.2 126.16-4.99 126.5-5.79 126.5-6.69L126.5-6.69ZM152.21-6.86L152.21-6.86Q152.21-5.35 151.63-4 151.06-2.66 150.06-1.66 149.06-0.66 147.71-0.09 146.37 0.49 144.86 0.49L144.86 0.49 142.86 0.49Q141.34 0.49 140-0.09 138.66-0.66 137.66-1.66 136.65-2.66 136.08-4 135.51-5.35 135.51-6.86L135.51-6.86 135.51-18.14Q135.51-19.65 136.08-21 136.65-22.34 137.66-23.34 138.66-24.34 140-24.91 141.34-25.49 142.86-25.49L142.86-25.49 144.86-25.49Q146.37-25.49 147.71-24.91 149.06-24.34 150.06-23.34 151.06-22.34 151.63-21 152.21-19.65 152.21-18.14L152.21-18.14 152.21-12.26 138.51-12.26 138.51-6.69Q138.51-5.79 138.85-4.99 139.19-4.2 139.78-3.61 140.37-3.03 141.16-2.69 141.95-2.34 142.86-2.34L142.86-2.34 144.86-2.34Q145.76-2.34 146.55-2.69 147.35-3.03 147.93-3.61 148.52-4.2 148.86-4.99 149.2-5.79 149.2-6.69L149.2-6.69 149.2-8.35 152.21-7.86 152.21-6.86ZM149.2-14.6L149.2-18.31Q149.2-19.21 148.86-20.01 148.52-20.8 147.93-21.39 147.35-21.97 146.55-22.31 145.76-22.66 144.86-22.66L144.86-22.66 142.86-22.66Q141.95-22.66 141.16-22.31 140.37-21.97 139.78-21.39 139.19-20.8 138.85-20.01 138.51-19.21 138.51-18.31L138.51-18.31 138.51-14.6 149.2-14.6ZM175.4-6.35L175.4-6.35Q175.4-4.83 174.79-3.58 174.18-2.32 173.13-1.42 172.08-0.51 170.7-0.01 169.32 0.49 167.8 0.49L167.8 0.49 165.8 0.49Q164.29 0.49 162.91-0.09 161.53-0.66 160.49-1.66 159.46-2.66 158.83-4 158.21-5.35 158.21-6.86L158.21-6.86 158.21-7.86 161.21-8.35 161.21-6.69Q161.21-5.79 161.59-4.99 161.97-4.2 162.6-3.61 163.24-3.03 164.07-2.69 164.9-2.34 165.8-2.34L165.8-2.34 167.8-2.34Q168.71-2.34 169.54-2.61 170.37-2.88 171.02-3.38 171.66-3.88 172.04-4.59 172.42-5.3 172.42-6.2L172.42-6.2Q172.42-7.54 171.83-8.4 171.25-9.25 170.28-9.83 169.32-10.4 168.09-10.78 166.85-11.16 165.56-11.54 164.26-11.91 163.03-12.4 161.8-12.89 160.83-13.68 159.87-14.48 159.28-15.67 158.7-16.87 158.7-18.65L158.7-18.65Q158.7-20.17 159.28-21.42 159.87-22.68 160.87-23.58 161.87-24.49 163.2-24.99 164.53-25.49 166.05-25.49L166.05-25.49 167.8-25.49Q169.32-25.49 170.66-24.91 172-24.34 173-23.34 174.01-22.34 174.58-21 175.15-19.65 175.15-18.14L175.15-18.14 175.15-18.04 172.15-17.55 172.15-18.31Q172.15-19.21 171.81-20.01 171.47-20.8 170.88-21.39 170.3-21.97 169.5-22.31 168.71-22.66 167.8-22.66L167.8-22.66 166.05-22.66Q165.14-22.66 164.35-22.39 163.56-22.12 162.97-21.62 162.38-21.12 162.04-20.41 161.7-19.7 161.7-18.8L161.7-18.8Q161.7-17.5 162.29-16.69 162.87-15.87 163.84-15.31 164.8-14.75 166.03-14.37 167.27-13.99 168.55-13.59 169.83-13.18 171.06-12.67 172.3-12.16 173.26-11.35 174.23-10.55 174.81-9.34 175.4-8.13 175.4-6.35ZM210.55 0L207.55 0 207.55-18.31Q207.55-19.21 207.21-20.01 206.86-20.8 206.28-21.39 205.69-21.97 204.9-22.31 204.11-22.66 203.2-22.66L203.2-22.66 201.71-22.66Q200.81-22.66 200.02-22.31 199.22-21.97 198.63-21.39 198.03-20.8 197.69-20.01 197.34-19.21 197.34-18.31L197.34-18.31 197.34 0 194.36 0 194.36-18.31Q194.36-19.21 194.02-20.01 193.68-20.8 193.08-21.39 192.48-21.97 191.69-22.31 190.9-22.66 189.99-22.66L189.99-22.66 188.51-22.66Q187.6-22.66 186.81-22.31 186.02-21.97 185.43-21.39 184.84-20.8 184.5-20.01 184.16-19.21 184.16-18.31L184.16-18.31 184.16 0 181.16 0 181.16-25 182.16-25 183.79-22.46Q184.82-23.85 186.37-24.67 187.92-25.49 189.75-25.49L189.75-25.49 189.99-25.49Q192.12-25.49 193.83-24.44 195.54-23.39 196.46-21.66L196.46-21.66Q196.93-22.51 197.61-23.22 198.3-23.93 199.13-24.43 199.96-24.93 200.93-25.21 201.91-25.49 202.96-25.49L202.96-25.49 203.2-25.49Q204.72-25.49 206.06-24.91 207.4-24.34 208.4-23.34 209.4-22.34 209.98-21 210.55-19.65 210.55-18.14L210.55-18.14 210.55 0ZM233.25-6.86L233.25-6.86Q233.25-5.35 232.68-4 232.11-2.66 231.11-1.66 230.1-0.66 228.76-0.09 227.42 0.49 225.91 0.49L225.91 0.49 223.9 0.49Q222.39 0.49 221.05-0.09 219.7-0.66 218.7-1.66 217.7-2.66 217.13-4 216.55-5.35 216.55-6.86L216.55-6.86 216.55-18.14Q216.55-19.65 217.13-21 217.7-22.34 218.7-23.34 219.7-24.34 221.05-24.91 222.39-25.49 223.9-25.49L223.9-25.49 225.91-25.49Q227.42-25.49 228.76-24.91 230.1-24.34 231.11-23.34 232.11-22.34 232.68-21 233.25-19.65 233.25-18.14L233.25-18.14 233.25-12.26 219.56-12.26 219.56-6.69Q219.56-5.79 219.9-4.99 220.24-4.2 220.83-3.61 221.41-3.03 222.21-2.69 223-2.34 223.9-2.34L223.9-2.34 225.91-2.34Q226.81-2.34 227.6-2.69 228.4-3.03 228.98-3.61 229.57-4.2 229.91-4.99 230.25-5.79 230.25-6.69L230.25-6.69 230.25-8.35 233.25-7.86 233.25-6.86ZM230.25-14.6L230.25-18.31Q230.25-19.21 229.91-20.01 229.57-20.8 228.98-21.39 228.4-21.97 227.6-22.31 226.81-22.66 225.91-22.66L225.91-22.66 223.9-22.66Q223-22.66 222.21-22.31 221.41-21.97 220.83-21.39 220.24-20.8 219.9-20.01 219.56-19.21 219.56-18.31L219.56-18.31 219.56-14.6 230.25-14.6ZM255.96 0L252.95 0 252.95-18.31Q252.95-19.21 252.61-20.01 252.27-20.8 251.68-21.39 251.1-21.97 250.3-22.31 249.51-22.66 248.61-22.66L248.61-22.66 246.61-22.66Q245.7-22.66 244.91-22.31 244.12-21.97 243.53-21.39 242.94-20.8 242.6-20.01 242.26-19.21 242.26-18.31L242.26-18.31 242.26 0 239.26 0 239.26-25 240.26-25 241.89-22.46Q242.92-23.85 244.47-24.67 246.02-25.49 247.85-25.49L247.85-25.49 248.61-25.49Q250.12-25.49 251.46-24.91 252.81-24.34 253.81-23.34 254.81-22.34 255.38-21 255.96-19.65 255.96-18.14L255.96-18.14 255.96 0Z" opacity="1" transform="matrix(1,0,0,1,0,0)" fill="#342691" class="wordmark-text-0" data-fill-palette-color="primary" id="text-0"></path></svg></g></svg></g></svg></g></svg></g><g transform="matrix(1,0,0,1,112.96082204329917,0)"><svg viewBox="0 0 169.59835591340163 169.59835591340163" height="169.59835591340163" width="169.59835591340163"><g><svg></svg></g><g id="icon-0"><svg viewBox="0 0 169.59835591340163 169.59835591340163" height="169.59835591340163" width="169.59835591340163"><g><path d="M0 84.799c0-46.833 37.966-84.799 84.799-84.799 46.833 0 84.799 37.966 84.799 84.799 0 46.833-37.966 84.799-84.799 84.799-46.833 0-84.799-37.966-84.799-84.799zM84.799 163.226c43.314 0 78.426-35.113 78.427-78.427 0-43.314-35.113-78.426-78.427-78.426-43.314 0-78.426 35.113-78.426 78.426 0 43.314 35.113 78.426 78.426 78.427z" data-fill-palette-color="accent" fill="#0705ff" stroke="transparent"></path></g><g transform="matrix(1,0,0,1,45.77655929381365,37.98523006534755)"><svg viewBox="0 0 78.04523732577434 93.62789578270653" height="93.62789578270653" width="78.04523732577434"><g><svg xmlns="http://www.w3.org/2000/svg" xmlns:xlink="http://www.w3.org/1999/xlink" version="1.1" x="0" y="0" viewBox="10.099372268740364 1.1141249938212614 82.38831876393137 98.83812500617874" enable-background="new 0 0 100 100" xml:space="preserve" height="93.62789578270653" width="78.04523732577434" class="icon-dxe-0" data-fill-palette-color="accent" id="dxe-0"><path fill="#0705ff" d="M39.147 92.609L47.893 90.909 47.581 89.305 38.835 91.004zM38.631 89.958L47.377 88.259 47.186 87.27 47.178 87.229C47.17 87.209 47.16 87.192 47.153 87.17 47.08 86.969 46.981 86.891 46.74 86.936L38.727 88.496C38.444 88.552 38.391 88.724 38.438 88.966zM35.863 80.346L38.296 87.465 46.681 85.835 46.246 78.33 46.248 78.238S46.252 78.179 46.244 78.092C46.197 77.512 45.791 77.457 45.217 77.579L44.742 77.672 45.019 81.848C45.069 82.579 44.127 82.716 43.968 81.998L43.071 77.996 36.4 79.293C35.759 79.418 35.543 79.727 35.822 80.255zM69.987 34.347L73.47 30.045C73.491 30.021 73.505 29.996 73.519 29.971 73.853 29.33 74.065 28.629 74.302 27.95 74.308 27.926 74.313 27.91 74.313 27.896A0.2 0.2 0 0 0 74.245 27.729 0.2 0.2 0 0 0 74.098 27.687 0.2 0.2 0 0 0 74.035 27.706C73.393 28.101 72.723 28.466 72.152 28.949L72.658 29.358 69.078 33.778 68.994 34.221A4 4 0 0 0 68.888 35.056 5 5 0 0 1 69.987 34.347M41.038 58.17L41.903 66.229C42.217 68.491 46.803 70.229 51.292 70.229 55.782 70.229 60.366 68.491 60.684 66.229L61.559 58.049C60.988 58.477 60.359 58.891 59.675 59.292 58.886 59.757 56.85 60.766 56.282 61.43 55.063 62.854 52.903 63.028 51.171 63.028 49.439 63.032 47.371 62.854 46.152 61.43 45.584 60.766 43.548 59.757 42.759 59.292A22 22 0 0 1 41.038 58.17M32.66 33.531C32.437 33.725 32.277 33.672 32.285 33.435 32.539 32.524 32.541 30.036 32.385 29.701 32.31 29.541 32.053 29.507 31.845 29.466 27.848 28.737 29.274 26.095 27.733 22.811 27.421 22.151 26.286 19.176 27.327 18.467L27.308 18.374C27.07 17.127 28.7 15.942 29.477 15.158 31.631 12.986 34.358 9.078 36.042 6.804 41.661-0.783 59.834-0.782 65.453 6.804 66.867 8.715 70.386 13.743 72.516 15.617 73.148 16.172 73.626 16.561 74.023 17.376 74.255 17.726 74.302 18.28 74.186 18.777 74.523 18.989 74.559 19.401 74.551 19.758 74.516 21.669 73.413 23.404 72.915 25.227 72.651 26.191 72.433 26.977 72.155 27.615 72.329 27.499 72.522 27.376 72.739 27.25 74.038 26.492 75.231 25.628 75.817 24.909 76.28 24.333 77.11 25.004 76.642 25.58 75.407 27.108 75.291 29.222 74.253 30.834L74.218 30.883 71.727 33.958C72.03 33.966 72.319 34.015 72.592 34.105 77.205 35.619 71.912 47.2 67.164 46.589 66.779 51.04 65.535 54.121 62.783 56.629L62.117 62.915C63.005 63.156 63.849 63.646 63.898 64.502 63.916 64.582 64.418 82.414 64.418 82.414 64.503 83.035 63.924 83.316 63.357 83.318 63.357 83.318 49.656 83.357 47.6 83.349L47.765 86.203C47.953 86.393 48.093 86.653 48.194 86.95L48.209 86.99C48.245 87.112 48.26 87.188 48.265 87.257L48.428 88.092C48.875 88.174 49 88.818 48.616 89.064L48.945 90.744C49.39 90.826 49.514 91.471 49.133 91.714L49.467 93.434C49.576 93.995 49.332 94.44 48.897 94.68A3.6 3.6 0 0 0 48.153 95.221C49.166 95.258 50.194 95.28 51.233 95.282A0.55 0.55 0 0 1 51.764 95.813V99.419C51.764 100.13 50.698 100.13 50.698 99.419V96.344C45.002 96.295 39.661 95.729 35.086 94.776V97.684C35.086 98.395 34.02 98.395 34.02 97.684V94.117C34.02 93.747 34.305 93.516 34.668 93.596 35.855 93.858 37.098 94.091 38.389 94.297L38.297 93.822C37.85 93.738 37.723 93.093 38.108 92.851L37.782 91.17C37.335 91.087 37.211 90.444 37.594 90.199L37.396 89.178A1.54 1.54 0 0 1 37.457 88.29L37.439 88.246 34.869 80.725C34.293 79.579 34.816 78.514 36.197 78.243L38.297 77.836C38.445 72.547 38.674 64.554 38.685 64.501 38.735 63.647 39.581 63.155 40.467 62.914L39.819 56.778C36.948 54.241 35.661 51.129 35.27 46.588 30.521 47.199 25.228 35.618 29.842 34.104 30.94 33.744 32.293 34.038 33.483 34.999 33.444 34.774 33.393 34.516 33.332 34.219L33.317 34.148C33.241 33.798 33.161 33.46 33.079 33.133L32.896 33.313A7 7 0 0 1 32.66 33.531M36.405 25.98C36.61 27.148 36.835 28.385 36.688 29.501 36.587 30.275 36.327 31.004 36.094 31.743 35.889 31.845 35.705 31.931 35.541 32.028A1.12 1.12 0 0 0 35.027 32.957V34.736C35.027 35.253 35.328 35.626 35.695 35.95 35.722 35.97 35.748 35.993 35.773 36.017 35.867 36.751 36.031 37.599 36.283 38.593 36.456 39.278 35.74 39.609 35.331 39.031 34.602 38.003 34.212 37.501 33.992 37.171L33.947 37.109C32.73 35.24 31.124 34.805 30.172 35.117 27.004 36.156 31.664 46.612 35.533 45.443 35.909 45.33 36.275 45.614 36.295 46.002 36.332 46.727 36.65 51.247 38.887 54.274 40.586 56.579 43.06 57.774 45.438 59.178 45.586 59.268 45.727 59.36 45.862 59.454 46.075 59.178 46.557 59.109 46.771 59.525 47.004 59.978 47.112 60.171 47.235 60.327 47.48 60.635 47.937 60.982 48.364 61.169 48.521 61.229 48.69 61.277 48.871 61.316 49.654 61.486 50.443 61.546 51.172 61.546 51.903 61.545 52.78 61.485 53.566 61.316 53.746 61.277 53.916 61.226 54.072 61.169 54.5 60.982 54.959 60.635 55.203 60.327 55.324 60.173 55.432 59.978 55.666 59.525 55.881 59.109 56.363 59.177 56.576 59.454 56.712 59.357 56.849 59.266 57 59.178 59.377 57.774 61.853 56.577 63.553 54.274 65.785 51.247 66.108 46.727 66.142 46.002 66.163 45.614 66.53 45.33 66.907 45.443 70.776 46.611 75.435 36.156 72.266 35.117 71.43 34.843 70.091 35.143 68.954 36.483L68.62 36.917A3 3 0 0 0 68.491 37.109 0.6 0.6 0 0 1 68.364 37.25L68.176 37.496C67.884 37.884 67.539 38.408 67.071 38.975 67.071 38.975 66.854 39.373 66.366 39.252 65.966 39.055 65.989 38.724 66.118 38.214 66.347 37.302 66.485 36.606 66.563 36.012A0.5 0.5 0 0 1 66.634 35.95C67 35.626 67.301 35.253 67.301 34.736V32.957C67.301 32.571 67.087 32.223 66.787 32.028A4 4 0 0 0 66.193 31.746 63 63 0 0 0 65.892 30.687C65.447 29.166 65.509 27.884 65.89 26.339 64.013 25.122 61.677 23.718 60.225 22.82 58.152 24.373 55.853 25.362 54.057 25.89 53.395 26.085 53.038 25.45 53.546 24.985A17 17 0 0 0 55.083 23.375 0.21 0.21 0 0 0 55.118 23.193 0.215 0.215 0 0 0 54.864 23.035 0.3 0.3 0 0 0 54.77 23.081L54.726 23.111A23 23 0 0 1 52.198 24.631S51.39 25.029 50.022 25.522A33 33 0 0 1 44.513 26.977C43.817 27.096 43.543 26.358 44.147 25.994 45.709 25.056 46.659 24.305 46.764 24.222 47.066 23.967 47.359 23.702 47.647 23.43 47.723 23.348 47.745 23.28 47.745 23.21A0.27 0.27 0 0 0 47.482 22.937 0.4 0.4 0 0 0 47.292 22.989 24 24 0 0 1 45.763 23.621S44.915 23.917 43.501 24.238A32.7 32.7 0 0 1 38.004 25.002zM63.667 22.919C63.901 23.086 64.798 23.781 65.831 24.485L66.249 24.07C66.356 23.962 66.52 24.125 66.411 24.234L66.026 24.617C67.528 25.625 69.247 26.586 69.672 25.999 69.808 25.812 69.812 25.4 69.4 25.114 68.222 24.295 67.346 23.796 66.434 23.284A0.11 0.11 0 0 1 66.412 23.42L65.869 23.963C65.762 24.071 65.598 23.908 65.707 23.8L66.25 23.257A0.12 0.12 0 0 1 66.318 23.221L65.984 23.034 65.869 23.149C65.762 23.258 65.598 23.095 65.707 22.987L65.775 22.917C64.656 22.287 63.377 21.532 61.379 20.11A0.1 0.1 0 0 1 61.347 20.164L60.804 20.706C60.697 20.814 60.531 20.652 60.641 20.543L61.183 20.001 60.917 19.779 60.804 19.892C60.697 20.001 60.531 19.837 60.641 19.728L60.729 19.641A98 98 0 0 1 59.251 18.54 18 18 0 0 0 55.88 16.496L55.739 16.635C55.629 16.744 55.468 16.582 55.575 16.472L55.653 16.393C54.096 15.71 52.575 15.36 51.151 15.343L50.672 15.821C50.565 15.929 50.401 15.766 50.509 15.657L50.821 15.345C49.216 15.305 47.494 15.693 45.735 16.509L45.608 16.634C45.557 16.686 45.495 16.677 45.453 16.642A18.6 18.6 0 0 0 42.403 18.539C38.816 21.259 37.055 22.258 35.495 23.129 35.456 23.17 35.427 23.181 35.401 23.182 34.422 23.728 33.508 24.238 32.255 25.111 31.515 25.625 31.889 26.792 33.614 25.828A31 31 0 0 0 35.322 24.779C35.276 24.738 35.258 24.667 35.315 24.611L35.858 24.068C35.966 23.96 36.13 24.123 36.021 24.232L35.766 24.486C37.477 23.35 39.463 21.925 40.759 20.976L40.922 20.811A0.11 0.11 0 0 1 41.026 20.779C41.324 20.56 41.574 20.375 41.762 20.234 42.979 19.324 44.2 18.635 45.416 18.141A0.1 0.1 0 0 1 45.444 18.099L45.986 17.556C46.093 17.448 46.259 17.611 46.15 17.72L45.925 17.946A13.4 13.4 0 0 1 50.657 17.134L51.051 16.742C51.159 16.634 51.322 16.798 51.214 16.906L50.979 17.141C52.561 17.197 54.111 17.526 55.607 18.065L56.115 17.557C56.223 17.449 56.388 17.612 56.279 17.721L55.846 18.154C57.24 18.678 58.581 19.383 59.861 20.216 60.133 20.395 60.525 20.667 60.994 21.001L61.182 20.813C61.291 20.705 61.453 20.869 61.346 20.978L61.186 21.137C61.901 21.648 62.769 22.277 63.667 22.919M60.12 17.865L60.618 18.238A0.105 0.105 0 0 1 60.631 18.113zM47.545 14.706A11.3 11.3 0 0 1 50.814 14.281C50.906 14.279 50.998 14.279 51.088 14.279H51.182C52.035 14.289 52.91 14.408 53.794 14.627 54.411 14.716 54.993 14.831 55.547 14.962A0.1 0.1 0 0 1 55.575 14.847L56.116 14.304C56.224 14.196 56.389 14.359 56.28 14.469L55.739 15.011C55.868 15.044 55.997 15.077 56.126 15.113 56.196 15.051 56.284 15.095 56.311 15.165 58.047 15.659 59.496 16.343 60.882 17.047L61.183 16.747C61.292 16.639 61.454 16.803 61.347 16.911L61.098 17.158C62.691 17.969 64.223 18.796 66.051 19.386L66.249 19.19C66.356 19.081 66.52 19.245 66.411 19.354L66.3 19.465C67.004 19.68 67.754 19.859 68.568 19.987 70.52 20.297 71.81 19.859 73.017 18.838 73.208 18.64 73.205 18.057 73.104 17.922 72.672 17.009 72.107 16.697 71.466 16.107L70.933 16.639C70.826 16.748 70.662 16.586 70.77 16.476L71.297 15.946 71.26 15.909 71.058 15.7 70.933 15.824C70.826 15.932 70.662 15.769 70.77 15.66L70.9 15.531C69.402 13.943 67.712 11.691 66.271 9.724L65.869 10.125C65.762 10.234 65.598 10.071 65.707 9.963L66.135 9.535 65.929 9.253 65.869 9.311C65.762 9.419 65.598 9.256 65.707 9.148L65.791 9.065C65.359 8.474 64.957 7.923 64.598 7.438 63.787 6.343 62.682 5.42 61.373 4.667L60.806 5.243C60.698 5.351 60.534 5.189 60.643 5.08L61.168 4.553 60.851 4.383 60.806 4.429C60.7 4.535 60.539 4.381 60.637 4.273 59.209 3.56 57.584 3.028 55.864 2.681L55.739 2.8C55.63 2.908 55.468 2.745 55.577 2.636A24.7 24.7 0 0 0 51.254 2.183 0.12 0.12 0 0 1 51.218 2.256L50.674 2.8C50.566 2.908 50.403 2.745 50.511 2.636L50.968 2.179A26 26 0 0 0 45.755 2.655L45.61 2.8C45.53 2.881 45.419 2.811 45.411 2.725 43.632 3.102 41.961 3.679 40.514 4.451 39.035 5.241 37.79 6.236 36.901 7.437 36.66 7.763 36.365 8.166 36.036 8.62 36.068 8.661 36.074 8.72 36.024 8.769L35.67 9.124C34.328 10.962 32.523 13.404 30.968 15.125 31.001 15.167 31.01 15.229 30.959 15.28L30.416 15.822A0.11 0.11 0 0 1 30.285 15.845C30.077 16.054 29.876 16.245 29.683 16.415 29.175 16.86 28.46 17.436 28.36 18.143 28.386 18.306 28.457 18.453 28.495 18.517A6.5 6.5 0 0 0 30.361 19.62L30.797 19.186C30.904 19.077 31.068 19.241 30.959 19.35L30.604 19.706C32.221 20.236 33.909 20.018 35.578 19.47L35.862 19.186C35.956 19.091 36.092 19.203 36.055 19.305 37.535 18.765 39.002 17.992 40.383 17.286L40.926 16.743C41.035 16.635 41.197 16.799 41.089 16.907L41.042 16.956 41.133 16.909C42.963 16.001 44.953 15.142 47.545 14.706M32.899 27.227C31.712 27.431 30.981 26.77 30.853 25.969L30.415 26.406C30.308 26.515 30.144 26.352 30.251 26.243L30.796 25.7A0.1 0.1 0 0 1 30.833 25.673C30.847 25.155 31.104 24.617 31.647 24.239 33.264 23.114 34.313 22.595 35.672 21.817L35.86 21.629A0.11 0.11 0 0 1 36.012 21.621C37.262 20.892 38.81 19.906 41.264 18.068 39.473 18.973 37.756 19.92 35.643 20.545L35.481 20.708C35.404 20.785 35.301 20.726 35.284 20.647 34.71 20.803 34.106 20.936 33.462 21.039A6.6 6.6 0 0 1 30.968 20.97L30.415 21.521C30.308 21.63 30.144 21.467 30.251 21.358L30.706 20.905C29.693 20.633 28.794 20.129 28.011 19.505 27.96 21.327 29.145 23.141 29.506 24.943 29.753 26.177 29.824 27.112 30.399 27.724L30.796 27.328C30.903 27.219 31.067 27.383 30.958 27.492L30.567 27.883C30.969 28.214 31.572 28.427 32.522 28.519 32.604 28.044 32.734 27.617 32.899 27.227M48.895 33.35C49.725 33.641 51.06 33.637 51.164 33.636 51.268 33.637 52.603 33.64 53.433 33.35 54.296 33.047 56.733 31.952 60.495 31.811 63.724 31.691 65.845 32.205 66.462 32.562A0.47 0.47 0 0 1 66.674 32.958V34.737C66.674 34.985 66.558 35.184 66.239 35.464 65.665 35.888 65.657 36.476 65.54 37.418 65.358 38.902 65.215 42.148 60.333 42.626 55.735 43.076 53.782 40.586 53.073 38.734 52.37 36.907 52.387 36.009 51.165 36.006 49.944 36.009 49.96 36.907 49.26 38.734 48.549 40.586 46.595 43.076 41.999 42.626 37.116 42.148 36.973 38.902 36.791 37.418 36.675 36.476 36.667 35.888 36.091 35.464 35.773 35.184 35.657 34.985 35.657 34.737V32.958C35.657 32.792 35.743 32.647 35.871 32.562 36.486 32.205 38.608 31.691 41.836 31.811 45.598 31.952 48.033 33.047 48.895 33.35M37.755 37.243C37.777 40.47 40.037 42.055 42.833 42.055 46.317 42.055 48.377 39.807 48.594 37.359 48.812 34.855 49.454 33.527 42.983 33.06 40.192 32.857 37.725 33.117 37.755 37.243M64.573 37.243C64.601 33.117 62.135 32.858 59.344 33.059 52.871 33.527 53.514 34.854 53.733 37.358 53.948 39.807 56.007 42.054 59.493 42.054 62.288 42.055 64.549 40.47 64.573 37.243M44.422 35.677A1.573 1.573 0 1 1 42.395 35.659C41.354 35.887 40.509 36.473 40.03 37.22 39.602 37.887 38.598 37.243 39.028 36.575 39.889 35.233 41.524 34.363 43.368 34.363S46.858 35.231 47.723 36.575C48.151 37.243 47.149 37.887 46.719 37.22 46.254 36.493 45.433 35.917 44.422 35.677M58.024 35.677C57.012 35.918 56.194 36.493 55.726 37.22 55.296 37.887 54.295 37.243 54.723 36.575 55.587 35.231 57.235 34.363 59.077 34.363 60.923 34.363 62.557 35.233 63.418 36.575 63.846 37.243 62.845 37.887 62.415 37.22 61.936 36.473 61.092 35.887 60.052 35.659A1.575 1.575 0 1 1 57.474 36.871C57.474 36.393 57.688 35.965 58.024 35.677M43.33 30.291C46.025 30.346 48.316 31.722 48.598 32.583 47.942 32.364 47.299 32.103 46.62 31.915 44.854 31.426 41.769 31.041 39.156 31.195 40.181 30.673 41.684 30.259 43.33 30.291M59.116 30.291C60.77 30.259 62.278 30.678 63.304 31.203 60.664 31.027 57.5 31.417 55.705 31.915 54.984 32.115 54.416 32.33 53.871 32.519 54.241 31.656 56.487 30.344 59.116 30.291M47.434 45.247S47.497 45.174 47.621 45.084C48.25 44.624 49.017 44.713 49.64 45.181 49.918 45.389 50.218 45.533 51.174 45.533 52.133 45.533 52.45 45.389 52.727 45.181 53.376 44.695 54.371 44.603 54.935 45.247 55.414 45.772 54.627 46.493 54.148 45.968 53.873 45.765 53.601 45.858 53.367 46.034L53.291 46.089C53.269 46.116 53.238 46.14 53.21 46.165 52.58 46.644 52.082 47.138 51.201 47.137 50.324 47.138 49.816 46.644 49.187 46.165A4 4 0 0 1 49.001 46.034C48.726 45.827 48.488 45.772 48.22 45.968 47.739 46.492 46.953 45.771 47.434 45.247M54.073 41.592C54.358 41.931 54.676 42.155 54.969 42.271 55.628 42.531 55.239 43.524 54.576 43.263 54.097 43.074 53.638 42.734 53.255 42.278 52.8 41.733 53.614 41.048 54.073 41.592M48.658 42.278C48.275 42.735 47.818 43.074 47.338 43.263 46.82 43.467 46.469 42.904 46.656 42.524A6.4 6.4 0 0 0 48.25 41.393C48.641 41.4 48.995 41.877 48.658 42.278M30.768 37.562C32.247 37.197 33.69 38.837 34.43 40.714 34.491 40.857 35.129 42.345 34.128 42.422 33.671 42.458 33.15 41.929 32.967 41.291 32.85 40.88 32.9 40.515 33.072 40.303 32.384 39.038 31.5 38.479 31.024 38.597 30.334 38.768 30.078 37.732 30.768 37.562M71.483 37.566C72.174 37.736 71.919 38.772 71.228 38.601 70.751 38.484 69.868 39.042 69.181 40.307 69.354 40.518 69.403 40.884 69.285 41.295 69.101 41.933 68.58 42.462 68.125 42.426 67.123 42.348 67.762 40.86 67.824 40.717 68.563 38.841 70.008 37.201 71.483 37.566M58.995 47.979C58.458 48.13 58.228 47.322 58.768 47.17 59.922 46.847 61.079 48.006 61.2 49.087 61.259 49.644 60.425 49.734 60.362 49.178 60.301 48.604 59.618 47.805 58.995 47.979M43.293 47.979C42.669 47.805 41.988 48.604 41.924 49.178 41.864 49.734 41.029 49.644 41.09 49.087 41.207 48.007 42.365 46.848 43.52 47.17 44.06 47.322 43.832 48.13 43.293 47.979M55.989 50.822A28 28 0 0 1 53.978 50.941C53.887 50.945 52.78 50.99 51.19 51.001A85 85 0 0 1 48.398 50.941 28 28 0 0 1 46.38 50.82C46.72 51.193 47.022 51.54 47.339 51.841 47.775 52.308 48.901 52.744 51.177 52.744 53.574 52.744 54.58 52.216 55.108 51.768 55.394 51.482 55.674 51.165 55.989 50.822M58.983 50.094C58.575 50.259 58.188 50.39 57.803 50.496L57.752 50.55C55.432 52.694 55.078 54.313 51.184 54.315 47.29 54.313 46.943 52.694 44.624 50.55L44.57 50.493A11 11 0 0 1 43.397 50.094C42.739 49.828 43.137 48.839 43.795 49.104 45.205 49.672 46.289 49.808 48.44 49.875 48.44 49.875 49.556 49.925 51.186 49.935A79 79 0 0 0 53.94 49.875C56.088 49.807 57.174 49.671 58.585 49.104 59.245 48.839 59.644 49.828 58.983 50.094M56.116 16.745C56.224 16.637 56.389 16.801 56.28 16.909L55.739 17.452C55.629 17.56 55.468 17.396 55.575 17.288zM51.054 15.932C51.161 15.823 51.325 15.987 51.217 16.096L50.674 16.638C50.566 16.747 50.403 16.585 50.511 16.475zM45.989 16.745C46.096 16.637 46.262 16.801 46.153 16.909L45.61 17.452C45.503 17.56 45.339 17.396 45.447 17.288zM40.924 20.002C41.033 19.893 41.195 20.056 41.087 20.165L40.545 20.707C40.437 20.815 40.272 20.653 40.381 20.544zM35.86 23.257C35.968 23.148 36.132 23.312 36.023 23.421L35.481 23.964C35.372 24.072 35.208 23.909 35.317 23.801zM71.313 19.188C71.42 19.079 71.585 19.243 71.475 19.352L70.932 19.894C70.825 20.003 70.661 19.839 70.769 19.73zM71.313 18.374C71.42 18.265 71.585 18.429 71.475 18.538L70.932 19.08C70.825 19.188 70.661 19.026 70.769 18.917zM71.313 17.56C71.42 17.452 71.585 17.615 71.475 17.724L70.932 18.266C70.825 18.375 70.661 18.211 70.769 18.103zM71.313 16.745C71.42 16.637 71.585 16.801 71.475 16.909L70.932 17.452C70.825 17.56 70.661 17.396 70.769 17.288zM66.249 18.374C66.356 18.265 66.52 18.429 66.411 18.538L65.868 19.08C65.76 19.188 65.597 19.026 65.704 18.917zM66.249 17.56C66.356 17.452 66.52 17.615 66.411 17.724L65.868 18.266C65.76 18.375 65.597 18.211 65.704 18.103zM66.249 16.745C66.356 16.637 66.52 16.801 66.411 16.909L65.868 17.452C65.76 17.56 65.597 17.396 65.704 17.288zM66.249 15.932C66.356 15.823 66.52 15.987 66.411 16.096L65.868 16.638C65.76 16.747 65.597 16.585 65.704 16.475zM66.249 15.117C66.356 15.009 66.52 15.173 66.411 15.281L65.868 15.823C65.76 15.931 65.597 15.768 65.704 15.659zM66.249 14.303C66.356 14.195 66.52 14.358 66.411 14.468L65.868 15.01C65.76 15.118 65.597 14.955 65.704 14.847zM66.249 13.49C66.356 13.382 66.52 13.545 66.411 13.654L65.868 14.196C65.76 14.304 65.597 14.141 65.704 14.032zM66.249 12.676C66.356 12.567 66.52 12.731 66.411 12.84L65.868 13.382C65.76 13.491 65.597 13.327 65.704 13.219zM66.249 11.861C66.356 11.753 66.52 11.917 66.411 12.025L65.868 12.567C65.76 12.675 65.597 12.513 65.704 12.404zM66.249 11.047C66.356 10.939 66.52 11.102 66.411 11.211L65.868 11.754C65.76 11.862 65.597 11.699 65.704 11.59zM66.249 10.233C66.356 10.125 66.52 10.289 66.411 10.397L65.868 10.939C65.76 11.047 65.597 10.884 65.704 10.776zM61.183 15.932C61.292 15.823 61.454 15.987 61.347 16.096L60.804 16.638C60.697 16.747 60.531 16.585 60.641 16.475zM61.183 15.117C61.292 15.009 61.454 15.173 61.347 15.281L60.804 15.823C60.697 15.931 60.531 15.768 60.641 15.659zM61.183 14.303C61.292 14.195 61.454 14.358 61.347 14.468L60.804 15.01C60.697 15.118 60.531 14.955 60.641 14.847zM61.183 13.49C61.292 13.382 61.454 13.545 61.347 13.654L60.804 14.196C60.697 14.304 60.531 14.141 60.641 14.032zM61.183 12.676C61.292 12.567 61.454 12.731 61.347 12.84L60.804 13.382C60.697 13.491 60.531 13.327 60.641 13.219zM61.183 11.861C61.292 11.753 61.454 11.917 61.347 12.025L60.804 12.567C60.697 12.675 60.531 12.513 60.641 12.404zM61.183 11.047C61.292 10.939 61.454 11.102 61.347 11.211L60.804 11.754C60.697 11.862 60.531 11.699 60.641 11.59zM61.183 10.233C61.292 10.125 61.454 10.289 61.347 10.397L60.804 10.939C60.697 11.047 60.531 10.884 60.641 10.776zM61.183 9.419C61.292 9.31 61.454 9.475 61.347 9.583L60.804 10.125C60.697 10.234 60.531 10.071 60.641 9.963zM61.183 8.606C61.292 8.497 61.454 8.661 61.347 8.77L60.804 9.312C60.697 9.42 60.531 9.257 60.641 9.149zM61.183 7.792C61.292 7.684 61.454 7.847 61.347 7.956L60.804 8.499C60.697 8.607 60.531 8.443 60.641 8.334zM61.183 6.978C61.292 6.869 61.454 7.032 61.347 7.141L60.804 7.684C60.697 7.792 60.531 7.628 60.641 7.52zM61.183 6.164C61.292 6.055 61.454 6.219 61.347 6.327L60.804 6.87C60.697 6.979 60.531 6.816 60.641 6.708zM61.183 5.349C61.292 5.241 61.454 5.405 61.347 5.513L60.804 6.055C60.696 6.164 60.53 6 60.641 5.892zM56.116 13.49C56.224 13.382 56.389 13.545 56.28 13.654L55.739 14.196C55.629 14.304 55.468 14.141 55.575 14.032zM56.116 12.676C56.224 12.567 56.389 12.731 56.28 12.84L55.739 13.382C55.629 13.491 55.468 13.327 55.575 13.219zM56.116 11.861C56.224 11.753 56.389 11.917 56.28 12.025L55.739 12.567C55.629 12.675 55.468 12.513 55.575 12.404zM56.116 11.047C56.224 10.939 56.389 11.102 56.28 11.211L55.739 11.754C55.629 11.862 55.468 11.699 55.575 11.59zM56.116 10.233C56.224 10.125 56.389 10.289 56.28 10.397L55.739 10.939C55.629 11.047 55.468 10.884 55.575 10.776zM56.116 9.419C56.224 9.31 56.389 9.475 56.28 9.583L55.739 10.125C55.629 10.234 55.468 10.071 55.575 9.963zM56.116 8.606C56.224 8.497 56.389 8.661 56.28 8.77L55.739 9.312C55.629 9.42 55.468 9.257 55.575 9.149zM56.116 7.792C56.224 7.684 56.389 7.847 56.28 7.956L55.739 8.499C55.629 8.607 55.468 8.443 55.575 8.334zM56.116 6.978C56.224 6.869 56.389 7.032 56.28 7.141L55.739 7.684C55.629 7.792 55.468 7.628 55.575 7.52zM56.116 6.164C56.224 6.055 56.389 6.219 56.28 6.327L55.739 6.87C55.63 6.979 55.468 6.816 55.577 6.708zM56.116 5.349C56.224 5.241 56.389 5.405 56.28 5.513L55.739 6.055C55.629 6.164 55.468 6 55.575 5.892zM56.116 4.536C56.224 4.428 56.389 4.591 56.28 4.701L55.739 5.243C55.629 5.351 55.468 5.189 55.575 5.08zM56.116 3.722C56.224 3.613 56.389 3.777 56.28 3.886L55.739 4.429C55.629 4.537 55.468 4.374 55.575 4.266zM56.116 2.908C56.224 2.799 56.389 2.963 56.28 3.072L55.739 3.614C55.629 3.723 55.468 3.56 55.575 3.452zM51.054 13.49C51.161 13.382 51.325 13.545 51.217 13.654L50.674 14.196C50.566 14.304 50.403 14.141 50.511 14.032zM51.054 12.676C51.161 12.567 51.325 12.731 51.217 12.84L50.674 13.382C50.566 13.491 50.403 13.327 50.511 13.219zM51.054 11.861C51.161 11.753 51.325 11.917 51.217 12.025L50.674 12.567C50.566 12.675 50.403 12.513 50.511 12.404zM51.054 11.047C51.161 10.939 51.325 11.102 51.217 11.211L50.674 11.754C50.566 11.862 50.403 11.699 50.511 11.59zM51.054 10.233C51.161 10.125 51.325 10.289 51.217 10.397L50.674 10.939C50.566 11.047 50.403 10.884 50.511 10.776zM51.054 9.419C51.161 9.31 51.325 9.475 51.217 9.583L50.674 10.125C50.566 10.234 50.403 10.071 50.511 9.963zM51.054 8.606C51.161 8.497 51.325 8.661 51.217 8.77L50.674 9.312C50.566 9.42 50.403 9.257 50.511 9.149zM51.054 7.792C51.161 7.684 51.325 7.847 51.217 7.956L50.674 8.499C50.566 8.607 50.403 8.443 50.511 8.334zM51.054 6.978C51.161 6.869 51.325 7.032 51.217 7.141L50.674 7.684C50.566 7.792 50.403 7.628 50.511 7.52zM51.054 6.164C51.161 6.055 51.325 6.219 51.217 6.327L50.674 6.87C50.566 6.979 50.403 6.816 50.511 6.708zM51.054 5.349C51.161 5.241 51.325 5.405 51.217 5.513L50.674 6.055C50.565 6.164 50.403 6 50.511 5.892zM51.054 4.536C51.161 4.428 51.325 4.591 51.217 4.701L50.674 5.243C50.566 5.351 50.403 5.189 50.511 5.08zM51.054 3.722C51.161 3.613 51.325 3.777 51.217 3.886L50.674 4.429C50.566 4.537 50.403 4.374 50.511 4.266zM51.054 2.908C51.161 2.799 51.325 2.963 51.217 3.072L50.674 3.614C50.566 3.723 50.403 3.56 50.511 3.452zM45.989 14.303C46.096 14.195 46.262 14.358 46.153 14.468L45.61 15.01C45.503 15.118 45.339 14.955 45.447 14.847zM45.989 13.49C46.096 13.382 46.262 13.545 46.153 13.654L45.61 14.196C45.503 14.304 45.339 14.141 45.447 14.032zM45.989 12.676C46.096 12.567 46.262 12.731 46.153 12.84L45.61 13.382C45.503 13.491 45.339 13.327 45.447 13.219zM45.989 11.861C46.096 11.753 46.262 11.917 46.153 12.025L45.61 12.567C45.503 12.675 45.339 12.513 45.447 12.404zM45.989 11.047C46.096 10.939 46.262 11.102 46.153 11.211L45.61 11.754C45.503 11.862 45.339 11.699 45.447 11.59zM45.989 10.233C46.096 10.125 46.262 10.289 46.153 10.397L45.61 10.939C45.503 11.047 45.339 10.884 45.447 10.776zM45.989 9.419C46.096 9.31 46.262 9.475 46.153 9.583L45.61 10.125C45.503 10.234 45.339 10.071 45.447 9.963zM45.989 8.606C46.096 8.497 46.262 8.661 46.153 8.77L45.61 9.312C45.503 9.42 45.339 9.257 45.447 9.149zM45.989 7.792C46.096 7.684 46.262 7.847 46.153 7.956L45.61 8.499C45.503 8.607 45.339 8.443 45.447 8.334zM45.989 6.978C46.096 6.869 46.262 7.032 46.153 7.141L45.61 7.684C45.503 7.792 45.339 7.628 45.447 7.52zM45.989 6.164C46.096 6.055 46.262 6.219 46.153 6.327L45.61 6.87C45.503 6.979 45.339 6.816 45.447 6.708zM45.989 5.349C46.096 5.241 46.262 5.405 46.153 5.513L45.61 6.055C45.503 6.164 45.339 6 45.447 5.892zM45.989 4.536C46.096 4.428 46.262 4.591 46.153 4.701L45.61 5.243C45.503 5.351 45.339 5.189 45.447 5.08zM45.989 3.722C46.096 3.613 46.262 3.777 46.153 3.886L45.61 4.429C45.503 4.537 45.339 4.374 45.447 4.266zM45.989 2.908C46.096 2.799 46.262 2.963 46.153 3.072L45.61 3.614C45.503 3.723 45.339 3.56 45.447 3.452zM40.924 15.932C41.033 15.823 41.195 15.987 41.087 16.096L40.545 16.638C40.437 16.747 40.272 16.585 40.381 16.475zM40.924 15.117C41.033 15.009 41.195 15.173 41.087 15.281L40.545 15.823C40.437 15.931 40.272 15.768 40.381 15.659zM40.924 14.303C41.033 14.195 41.195 14.358 41.087 14.468L40.545 15.01C40.437 15.118 40.272 14.955 40.381 14.847zM40.924 13.49C41.033 13.382 41.195 13.545 41.087 13.654L40.545 14.196C40.437 14.304 40.272 14.141 40.381 14.032zM40.924 12.676C41.033 12.567 41.195 12.731 41.087 12.84L40.545 13.382C40.437 13.491 40.272 13.327 40.381 13.219zM40.924 11.861C41.033 11.753 41.195 11.917 41.087 12.025L40.545 12.567C40.437 12.675 40.272 12.513 40.381 12.404zM40.924 11.047C41.033 10.939 41.195 11.102 41.087 11.211L40.545 11.754C40.437 11.862 40.272 11.699 40.381 11.59zM40.924 10.233C41.033 10.125 41.195 10.289 41.087 10.397L40.545 10.939C40.437 11.047 40.272 10.884 40.381 10.776zM40.924 9.419C41.033 9.31 41.195 9.475 41.087 9.583L40.545 10.125C40.437 10.234 40.272 10.071 40.381 9.963zM40.924 8.606C41.033 8.497 41.195 8.661 41.087 8.77L40.545 9.312C40.437 9.42 40.272 9.257 40.381 9.149zM40.924 7.792C41.033 7.684 41.195 7.847 41.087 7.956L40.545 8.499C40.437 8.607 40.272 8.443 40.381 8.334zM40.924 6.978C41.033 6.869 41.195 7.032 41.087 7.141L40.545 7.684C40.437 7.792 40.272 7.628 40.381 7.52zM40.924 6.164C41.033 6.055 41.195 6.219 41.087 6.327L40.545 6.87C40.437 6.979 40.272 6.816 40.381 6.708zM40.924 5.349C41.033 5.241 41.195 5.405 41.087 5.513L40.545 6.055C40.437 6.164 40.272 6 40.381 5.892zM40.924 4.536C41.033 4.428 41.195 4.591 41.087 4.701L40.545 5.243C40.437 5.351 40.272 5.189 40.381 5.08zM35.86 18.374C35.968 18.265 36.132 18.429 36.023 18.538L35.481 19.08C35.372 19.188 35.208 19.026 35.317 18.917zM35.86 17.56C35.968 17.452 36.132 17.615 36.023 17.724L35.481 18.266C35.372 18.375 35.208 18.211 35.317 18.103zM35.86 16.745C35.968 16.637 36.132 16.801 36.023 16.909L35.481 17.452C35.372 17.56 35.208 17.396 35.317 17.288zM35.86 15.932C35.968 15.823 36.132 15.987 36.023 16.096L35.481 16.638C35.372 16.747 35.208 16.585 35.317 16.475zM35.86 15.117C35.968 15.009 36.132 15.173 36.023 15.281L35.481 15.823C35.372 15.931 35.208 15.768 35.317 15.659zM35.86 14.303C35.968 14.195 36.132 14.358 36.023 14.468L35.481 15.01C35.372 15.118 35.208 14.955 35.317 14.847zM35.86 13.49C35.968 13.382 36.132 13.545 36.023 13.654L35.481 14.196C35.372 14.304 35.208 14.141 35.317 14.032zM35.86 12.676C35.968 12.567 36.132 12.731 36.023 12.84L35.481 13.382C35.372 13.491 35.208 13.327 35.317 13.219zM35.86 11.861C35.968 11.753 36.132 11.917 36.023 12.025L35.481 12.567C35.372 12.675 35.208 12.513 35.317 12.404zM35.86 11.047C35.968 10.939 36.132 11.102 36.023 11.211L35.481 11.754C35.372 11.862 35.208 11.699 35.317 11.59zM35.86 10.233C35.968 10.125 36.132 10.289 36.023 10.397L35.481 10.939C35.372 11.047 35.208 10.884 35.317 10.776zM35.86 9.419C35.968 9.31 36.132 9.475 36.023 9.583L35.481 10.125C35.372 10.234 35.208 10.071 35.317 9.963zM30.795 18.374C30.902 18.265 31.066 18.429 30.957 18.538L30.414 19.08C30.307 19.188 30.143 19.026 30.25 18.917zM30.795 17.56C30.902 17.452 31.066 17.615 30.957 17.724L30.414 18.266C30.307 18.375 30.143 18.211 30.25 18.103zM30.795 16.745C30.902 16.637 31.066 16.801 30.957 16.909L30.414 17.452C30.307 17.56 30.143 17.396 30.25 17.288zM30.795 15.932C30.902 15.823 31.066 15.987 30.957 16.096L30.414 16.638C30.307 16.747 30.143 16.585 30.25 16.475zM35.86 20.815C35.968 20.707 36.132 20.871 36.023 20.98L35.481 21.522C35.372 21.631 35.208 21.468 35.317 21.359zM30.795 26.513C30.902 26.405 31.066 26.568 30.957 26.677L30.414 27.219C30.307 27.328 30.143 27.164 30.25 27.055zM30.795 24.885C30.902 24.777 31.066 24.94 30.957 25.049L30.414 25.591C30.307 25.7 30.143 25.536 30.25 25.427zM30.795 24.071C30.902 23.963 31.066 24.126 30.957 24.235L30.414 24.778C30.307 24.886 30.143 24.723 30.25 24.614zM30.795 23.257C30.902 23.148 31.066 23.312 30.957 23.421L30.414 23.964C30.307 24.072 30.143 23.909 30.25 23.801zM30.795 22.443C30.902 22.334 31.066 22.499 30.957 22.607L30.414 23.149C30.307 23.258 30.143 23.095 30.25 22.987zM30.795 21.629C30.902 21.52 31.066 21.685 30.957 21.794L30.414 22.336C30.307 22.444 30.143 22.282 30.25 22.173zM71.364 66.204C75.631 67.812 77.161 68.327 83.243 70.66 84.888 71.29 88.477 77.877 91.731 85.81 91.731 85.81 92.159 86.818 92.292 87.204 92.446 87.66 92.546 88.103 92.45 88.402L92.388 88.607C90.095 94.468 82.436 97.261 71.928 98.527L70.385 67.912C70.272 66.351 69.957 65.976 69.737 65.853 69.631 65.793 69.68 65.738 69.774 65.736 70.016 65.732 70.554 65.879 71.364 66.204M31.223 66.204C32.032 65.879 32.571 65.732 32.814 65.736 32.907 65.738 32.957 65.795 32.848 65.853 32.629 65.976 32.316 66.351 32.202 67.912L30.659 98.527C20.151 97.261 12.493 94.468 10.198 88.607L10.136 88.402C10.042 88.103 10.141 87.66 10.296 87.204A33 33 0 0 1 10.858 85.81C14.109 77.875 17.7 71.289 19.344 70.66 25.424 68.327 26.957 67.812 31.223 66.204" data-fill-palette-color="accent"></path></svg></g></svg></g></svg></g></svg></g><g></g></svg></g><defs></defs></svg><rect width="357.31824314866327" height="247.2" fill="none" stroke="none" visibility="hidden"></rect></g></svg></g></svg>